<?xml version="1.0" encoding="UTF-8"?>
<svg xmlns="http://www.w3.org/2000/svg" xmlns:xlink="http://www.w3.org/1999/xlink" width="16px" height="16px" viewBox="0 0 16 16" version="1.1">
<g id="surface1">
<path style=" stroke:none;fill-rule:nonzero;fill:rgb(32.156864%,76.862746%,85.882354%);fill-opacity:1;" d="M 7.332031 13.554688 C 7.332031 14.167969 6.886719 14.667969 6.332031 14.667969 C 5.78125 14.667969 5.332031 14.167969 5.332031 13.554688 C 5.332031 13.21875 5.632812 12.785156 5.90625 12.460938 C 6.132812 12.1875 6.535156 12.1875 6.761719 12.460938 C 7.03125 12.785156 7.332031 13.21875 7.332031 13.554688 Z M 7.332031 13.554688 "/>
<path style=" stroke:none;fill-rule:nonzero;fill:rgb(32.156864%,76.862746%,85.882354%);fill-opacity:1;" d="M 10.667969 13.554688 C 10.667969 14.167969 10.21875 14.667969 9.667969 14.667969 C 9.113281 14.667969 8.667969 14.167969 8.667969 13.554688 C 8.667969 13.21875 8.96875 12.785156 9.238281 12.460938 C 9.464844 12.1875 9.867188 12.1875 10.09375 12.460938 C 10.367188 12.785156 10.667969 13.21875 10.667969 13.554688 Z M 10.667969 13.554688 "/>
<path style=" stroke:none;fill-rule:nonzero;fill:rgb(32.156864%,76.862746%,85.882354%);fill-opacity:1;" d="M 9 10.222656 C 9 10.835938 8.550781 11.332031 8 11.332031 C 7.449219 11.332031 7 10.835938 7 10.222656 C 7 9.886719 7.300781 9.449219 7.574219 9.125 C 7.800781 8.855469 8.199219 8.855469 8.425781 9.125 C 8.699219 9.449219 9 9.886719 9 10.222656 Z M 9 10.222656 "/>
<path style=" stroke:none;fill-rule:nonzero;fill:rgb(32.156864%,76.862746%,85.882354%);fill-opacity:1;" d="M 4.5625 12.667969 C 4.59375 12.609375 4.621094 12.554688 4.648438 12.507812 C 4.800781 12.246094 4.984375 12.003906 5.140625 11.816406 C 5.433594 11.464844 5.84375 11.277344 6.261719 11.257812 C 6.089844 10.941406 6 10.582031 6 10.222656 C 6 9.789062 6.179688 9.414062 6.316406 9.175781 C 6.464844 8.910156 6.648438 8.671875 6.804688 8.484375 C 7.433594 7.734375 8.566406 7.734375 9.195312 8.484375 C 9.351562 8.671875 9.535156 8.910156 9.683594 9.175781 C 9.820312 9.414062 10 9.789062 10 10.222656 C 10 10.582031 9.910156 10.941406 9.738281 11.257812 C 10.15625 11.277344 10.566406 11.464844 10.859375 11.816406 C 11.015625 12.003906 11.199219 12.246094 11.351562 12.507812 C 11.371094 12.542969 11.394531 12.582031 11.414062 12.625 C 13.253906 12.359375 14.667969 10.792969 14.667969 8.902344 C 14.667969 7.253906 13.59375 5.851562 12.101562 5.34375 C 11.890625 3.460938 10.277344 2 8.316406 2 C 6.214844 2 4.507812 3.683594 4.507812 5.765625 C 4.507812 6.222656 4.589844 6.664062 4.742188 7.074219 C 4.566406 7.039062 4.378906 7.019531 4.191406 7.019531 C 2.613281 7.019531 1.332031 8.285156 1.332031 9.84375 C 1.332031 11.402344 2.613281 12.667969 4.191406 12.667969 Z M 4.5625 12.667969 "/>
</g>
</svg>
